HIERARCHY
ROOT Hips
{
	OFFSET 0.000000 0.000000 0.000000
	CHANNELS 6 Xposition Yposition Zposition Zrotation Yrotation Xrotation 
	JOINT LeftUpLeg_virtual
	{
		OFFSET 0.000000 0.000000 0.000000
		CHANNELS 3 Zrotation Yrotation Xrotation
		JOINT LeftUpLeg
		{
			OFFSET 8.479694 -4.795517 -0.379053
			CHANNELS 3 Zrotation Yrotation Xrotation
			JOINT LeftLeg
			{
				OFFSET 0.485052 -32.551468 0.112863
				CHANNELS 3 Zrotation Yrotation Xrotation
				JOINT LeftFoot
				{
					OFFSET 0.438033 -32.635670 -3.012641
					CHANNELS 3 Zrotation Yrotation Xrotation
					JOINT LeftToeBase
					{
						OFFSET 0.970169 -13.225353 11.864223
						CHANNELS 3 Zrotation Yrotation Xrotation
						End Site
						{
							OFFSET 0.000000 0.000000 0.000000
						}
					}
				}
			}
		}
	}
	JOINT RightUpLeg_virtual
	{
		OFFSET 0.000000 0.000000 0.000000
		CHANNELS 3 Zrotation Yrotation Xrotation
		JOINT RightUpLeg
		{
			OFFSET -8.479694 -4.795517 -0.379053
			CHANNELS 3 Zrotation Yrotation Xrotation
			JOINT RightLeg
			{
				OFFSET -0.484100 -32.551483 0.112903
				CHANNELS 3 Zrotation Yrotation Xrotation
				JOINT RightFoot
				{
					OFFSET -0.438985 -32.635651 -3.012681
					CHANNELS 3 Zrotation Yrotation Xrotation
					JOINT RightToeBase
					{
						OFFSET -0.970169 -13.225354 11.864223
						CHANNELS 3 Zrotation Yrotation Xrotation
						End Site
						{
							OFFSET 0.000000 0.000000 0.000000
						}
					}
				}
			}
		}
	}
	JOINT Spine_virtual
	{
		OFFSET 0.000000 0.000000 0.000000
		CHANNELS 3 Zrotation Yrotation Xrotation
		JOINT Spine
		{
			OFFSET 0.000000 7.722015 1.166203
			CHANNELS 3 Zrotation Yrotation Xrotation
			JOINT Spine1
			{
				OFFSET 0.000000 12.024086 0.248766
				CHANNELS 3 Zrotation Yrotation Xrotation
				JOINT Spine2
				{
					OFFSET -0.000000 11.503036 -0.491240
					CHANNELS 3 Zrotation Yrotation Xrotation
					JOINT Neck_virtual
					{
						OFFSET 0.000000 0.000000 0.000000
						CHANNELS 3 Zrotation Yrotation Xrotation
						JOINT Neck
						{
							OFFSET 0.000000 18.430687 -3.123054
							CHANNELS 3 Zrotation Yrotation Xrotation
							JOINT Head
							{
								OFFSET -0.000000 9.051071 1.034021
								CHANNELS 3 Zrotation Yrotation Xrotation
								End Site
								{
									OFFSET 0.000000 0.000000 0.000000
								}
							}
						}
					}
					JOINT LeftShoulder_virtual
					{
						OFFSET 0.000000 0.000000 0.000000
						CHANNELS 3 Zrotation Yrotation Xrotation
						JOINT LeftShoulder
						{
							OFFSET 6.197824 13.665230 -4.064723
							CHANNELS 3 Zrotation Yrotation Xrotation
							JOINT LeftArm
							{
								OFFSET 7.778132 -0.187073 -1.709282
								CHANNELS 3 Zrotation Yrotation Xrotation
								JOINT LeftForeArm
								{
									OFFSET 21.954697 0.000000 -2.041093
									CHANNELS 3 Zrotation Yrotation Xrotation
									JOINT LeftHand
									{
										OFFSET 22.992908 0.000000 -0.870901
										CHANNELS 3 Zrotation Yrotation Xrotation
										End Site
										{
											OFFSET 0.000000 0.000000 0.000000
										}
									}
								}
							}
						}
					}
					JOINT RightShoulder_virtual
					{
						OFFSET 0.000000 0.000000 0.000000
						CHANNELS 3 Zrotation Yrotation Xrotation
						JOINT RightShoulder
						{
							OFFSET -6.197824 13.665230 -4.064723
							CHANNELS 3 Zrotation Yrotation Xrotation
							JOINT RightArm
							{
								OFFSET -7.778132 -0.187073 -1.709282
								CHANNELS 3 Zrotation Yrotation Xrotation
								JOINT RightForeArm
								{
									OFFSET -21.954697 0.000000 -2.041093
									CHANNELS 3 Zrotation Yrotation Xrotation
									JOINT RightHand
									{
										OFFSET -22.992908 0.000000 -0.870901
										CHANNELS 3 Zrotation Yrotation Xrotation
										End Site
										{
											OFFSET 0.000000 0.000000 0.000000
										}
									}
								}
							}
						}
					}
				}
			}
		}
	}
}
MOTION
Frames: 9
Frame Time: 0.033333
9.990236 82.572899 2.183957 -179.919067 -35.629859 179.868059 -1.817096 0.922923 14.698290 11.120237 -0.885237 -30.225421 -0.586657 1.783606 31.259775 -1.563827 -8.957596 -6.663357 0.000000 0.000000 0.000000 1.198092 -1.250713 14.673514 2.945611 -2.570108 -26.772950 -0.090587 4.020750 29.047411 3.850025 2.852851 -11.694514 0.000000 0.000000 0.000000 4.015229 2.155853 5.013802 3.128957 -1.775240 -6.223841 -1.483276 -3.181173 14.622926 -0.025986 0.002731 -0.023335 -1.663987 -2.054548 14.857166 -5.533311 -3.647114 2.068293 0.000000 0.000000 0.000000 -0.223319 -1.399943 11.361635 -4.083553 -4.121064 3.243715 -59.833290 -11.518924 18.060683 -0.944290 -40.297553 8.329192 0.000000 0.000000 0.000000 -4.107180 0.190912 11.151436 27.972256 1.303889 4.189844 54.533439 11.323077 3.379806 -5.230480 32.337049 -4.555478 0.000000 0.000000 0.000000 
9.946822 82.555283 2.016603 -179.940555 -34.693966 179.830056 -1.903941 0.957348 14.723736 11.406399 -1.913988 -30.031792 -1.437314 0.498745 29.527417 -2.692663 -10.367981 -7.665549 0.000000 0.000000 0.000000 1.413788 -1.084875 14.741526 2.394238 -2.236452 -26.575826 0.191830 3.914487 28.849179 3.847211 3.085439 -11.957563 0.000000 0.000000 0.000000 3.782458 2.360852 5.114444 3.100300 -1.827938 -6.142821 -1.462239 -3.087164 14.540081 0.018581 -0.025468 0.030628 -1.591750 -2.010182 14.726094 -5.359645 -3.558541 1.996926 0.000000 0.000000 0.000000 -0.202189 -1.492168 11.314188 -3.829291 -4.157251 3.034302 -59.896729 -11.565759 17.969087 -0.968994 -40.238253 8.207084 0.000000 0.000000 0.000000 -4.041421 0.056461 11.000638 28.030092 1.229995 3.985089 54.738342 11.431498 3.873630 -5.310928 32.932570 -4.753326 0.000000 0.000000 0.000000 
9.901849 82.526657 1.896224 179.994432 -33.520772 179.930364 -1.957403 1.002777 14.727510 11.718155 -2.882716 -29.794463 -1.959052 -0.096206 28.579991 -3.359549 -11.133575 -8.475159 0.000000 0.000000 0.000000 1.057808 -0.724664 14.753866 2.552200 -1.819889 -26.400466 0.326266 4.011305 28.651359 3.883481 3.320434 -11.953669 0.000000 0.000000 0.000000 3.490836 2.537214 5.076259 2.971202 -1.941910 -6.042848 -1.443174 -3.089231 14.538012 -0.027736 0.036119 -0.025521 -1.497803 -1.915313 14.692184 -5.361310 -3.522351 1.928693 0.000000 0.000000 0.000000 -0.075327 -1.291246 11.187328 -3.633486 -4.112590 2.951726 -59.941658 -11.673639 18.062562 -0.756816 -40.192836 7.842380 0.000000 0.000000 0.000000 -3.942705 0.420450 10.903632 28.102999 0.990820 3.713818 55.039150 11.636563 4.301937 -5.136494 33.680967 -4.648351 0.000000 0.000000 0.000000 
9.816078 82.499298 1.840355 179.872936 -32.333296 179.984678 -2.014360 1.035215 14.636628 11.882339 -3.519677 -29.637349 -2.341633 -0.418529 28.167806 -3.829365 -11.552493 -9.096434 0.000000 0.000000 0.000000 0.772816 -0.412026 14.708486 2.566315 -1.279521 -26.268499 0.347954 4.113517 28.595461 3.915339 3.503387 -11.978044 0.000000 0.000000 0.000000 3.201712 2.869329 5.070732 2.748979 -1.877993 -5.899113 -1.426163 -3.077324 14.512306 0.040358 0.013453 -0.056875 -1.498934 -2.125728 14.649286 -5.313205 -3.540706 1.880810 0.000000 0.000000 0.000000 -0.078611 -1.313712 11.219339 -3.467913 -4.195170 2.811305 -59.844280 -11.870715 17.976628 -0.847009 -40.149006 7.824251 0.000000 0.000000 0.000000 -3.909315 0.253980 10.883036 28.141373 1.000313 3.474940 55.341335 11.974177 4.935757 -5.222200 34.616143 -4.810410 0.000000 0.000000 0.000000 
9.685720 82.473038 1.816850 179.791192 -31.467515 -179.972097 -2.195087 1.235882 14.585165 11.853191 -3.542424 -29.407475 -2.250246 -0.340187 28.365340 -3.799115 -11.253735 -9.298106 0.000000 0.000000 0.000000 0.630032 -0.277305 14.642175 2.396354 -0.761006 -26.214474 0.328103 4.171678 28.684175 3.987983 3.658656 -12.025216 0.000000 0.000000 0.000000 2.947246 2.855695 5.053197 2.522628 -2.052532 -5.753721 -1.346799 -3.012056 14.492610 0.042311 0.066200 -0.073729 -1.506409 -1.954674 14.582558 -5.356721 -3.675986 1.859527 0.000000 0.000000 0.000000 -0.103274 -1.286233 11.135444 -3.228935 -4.296230 2.636300 -59.941337 -11.991801 17.991502 -0.727239 -40.122280 7.592605 0.000000 0.000000 0.000000 -3.872433 0.289474 10.805565 28.039844 0.994661 3.235884 55.650237 12.368012 5.450232 -5.147788 35.662521 -4.792217 0.000000 0.000000 0.000000 
9.482754 82.445351 1.837425 179.882867 -30.573880 -179.991385 -2.293631 1.447378 14.514502 11.831252 -3.362474 -29.373741 -2.216970 -0.194779 28.846983 -3.756153 -10.958852 -9.560132 0.000000 0.000000 0.000000 0.191551 -0.071971 14.565290 2.812607 -0.146796 -26.219093 0.075643 4.361270 28.777349 4.043948 3.674585 -11.845174 0.000000 0.000000 0.000000 2.840037 2.943661 5.011787 2.410298 -2.130879 -5.651483 -1.433804 -3.046076 14.473895 -0.002152 -0.002452 -0.025871 -1.352526 -1.911425 14.473144 -5.263015 -3.590709 1.841423 0.000000 0.000000 0.000000 0.030134 -1.299033 11.033064 -3.055493 -4.294002 2.512685 -60.065169 -12.032528 17.885796 -0.656765 -40.229862 7.420346 0.000000 0.000000 0.000000 -3.774627 0.343873 10.693097 27.814176 1.007725 2.972988 55.978922 12.667023 6.209151 -5.198175 36.754262 -4.863444 0.000000 0.000000 0.000000 
9.213015 82.431587 1.881897 179.893878 -29.655148 -179.968327 -2.534982 1.579232 14.485469 11.758112 -3.213589 -29.485657 -1.923257 0.197970 29.503648 -3.588232 -10.612469 -9.936924 0.000000 0.000000 0.000000 0.599289 0.081183 14.453391 1.872690 0.755461 -26.347972 0.155874 4.427033 29.099720 4.099994 3.609627 -12.083452 0.000000 0.000000 0.000000 2.682441 2.943859 4.965150 2.253342 -2.109228 -5.555162 -1.352635 -3.034962 14.433674 -0.030252 0.009683 0.000896 -1.357114 -1.933598 14.411042 -5.265028 -3.657874 1.877373 0.000000 0.000000 0.000000 0.009960 -1.315104 10.941983 -2.834963 -4.317264 2.344357 -60.215863 -12.017577 17.716128 -0.641032 -40.447308 7.291192 0.000000 0.000000 0.000000 -3.742255 0.323789 10.639380 27.432678 1.090913 2.870397 56.243148 13.002984 6.867251 -5.094002 37.763795 -4.804127 0.000000 0.000000 0.000000 
8.885359 82.420105 1.958578 -179.953068 -28.783162 179.970949 -2.750565 1.680671 14.472228 11.655055 -3.029369 -29.710735 -1.692756 0.636933 30.373701 -3.386934 -10.327525 -10.310073 0.000000 0.000000 0.000000 0.732026 0.068018 14.361550 1.445924 1.734135 -26.463831 -0.040322 4.540898 29.352895 4.317212 3.629203 -12.108030 0.000000 0.000000 0.000000 2.566108 2.890351 4.929314 2.168613 -2.085300 -5.492226 -1.264702 -3.050945 14.406749 0.000024 0.021295 -0.013746 -1.389634 -1.969380 14.369453 -5.265942 -3.755063 1.875534 0.000000 0.000000 0.000000 -0.025965 -1.340379 10.905986 -2.678736 -4.312297 2.242880 -60.447946 -11.914772 17.630151 -0.556329 -40.748168 6.959712 0.000000 0.000000 0.000000 -3.767398 0.302781 10.638613 26.971644 1.171306 2.764241 56.514201 13.168707 7.643403 -5.070749 38.570765 -4.831297 0.000000 0.000000 0.000000 
8.500368 82.413551 2.073692 -179.844946 -27.988923 179.913972 -2.943684 1.729032 14.452953 11.484488 -2.772406 -29.976023 -1.382193 1.113074 31.379173 -3.099989 -10.078663 -10.632702 0.000000 0.000000 0.000000 0.930898 -0.152470 14.308601 0.846376 2.779160 -26.546544 -0.155395 4.825662 29.571202 4.543113 3.568935 -12.122413 0.000000 0.000000 0.000000 2.479504 2.768828 4.908182 2.056331 -2.085463 -5.461480 -1.214771 -3.103797 14.427724 -0.005315 -0.011688 -0.019087 -1.349698 -2.218856 14.323649 -5.322349 -3.796357 1.911179 0.000000 0.000000 0.000000 0.017193 -1.359392 10.926984 -2.523564 -4.274268 2.157887 -60.650031 -11.766770 17.597822 -0.514825 -40.936674 6.879260 0.000000 0.000000 0.000000 -3.745824 0.278869 10.537634 26.498433 1.240113 2.650968 56.765938 13.220383 8.368075 -5.122883 39.196731 -4.890276 0.000000 0.000000 0.000000 
